<?xml version="1.0" encoding="UTF-8" standalone="no"?>
<svg
   version="1.2"
   width="256"
   height="32"
   viewBox="0 0 256 32"
   id="svg1"
   sodipodi:docname="banner.svg"
   inkscape:export-filename="banner.png"
   inkscape:export-xdpi="720"
   inkscape:export-ydpi="720"
   inkscape:version="1.3.2 (091e20e, 2023-11-25, custom)"
   xmlns:inkscape="http://www.inkscape.org/namespaces/inkscape"
   xmlns:sodipodi="http://sodipodi.sourceforge.net/DTD/sodipodi-0.dtd"
   xmlns="http://www.w3.org/2000/svg"
   xmlns:svg="http://www.w3.org/2000/svg">
  <defs
     id="defs1" />
  <sodipodi:namedview
     id="namedview1"
     pagecolor="#ffffff"
     bordercolor="#000000"
     borderopacity="0.25"
     inkscape:showpageshadow="2"
     inkscape:pageopacity="0.0"
     inkscape:pagecheckerboard="0"
     inkscape:deskcolor="#d1d1d1"
     inkscape:zoom="3.557631"
     inkscape:cx="137.45102"
     inkscape:cy="16.162441"
     inkscape:window-width="1920"
     inkscape:window-height="1057"
     inkscape:window-x="-8"
     inkscape:window-y="-8"
     inkscape:window-maximized="1"
     inkscape:current-layer="svg1" />
  <rect
     x="-44.973747"
     y="0"
     width="349.88269"
     height="32"
     id="0"
     fill="#d3b9b6"
     fill-opacity="1"
     style="display:inline;stroke-width:1.16906"
     inkscape:export-filename="0.png"
     inkscape:export-xdpi="526.80511"
     inkscape:export-ydpi="526.80511" />
  <ellipse
     cx="230"
     cy="5"
     rx="24"
     ry="6"
     id="1"
     fill="rgb(162,1,0)"
     fill-opacity="0.501961" />
  <ellipse
     cx="60"
     cy="28"
     rx="9"
     ry="16"
     id="2"
     fill="rgb(139,0,0)"
     fill-opacity="0.501961" />
  <ellipse
     cx="193"
     cy="22"
     rx="25"
     ry="11"
     id="3"
     fill="rgb(255,255,255)"
     fill-opacity="0.501961" />
  <circle
     cx="221"
     cy="11"
     r="7"
     id="4"
     fill="rgb(133,0,0)"
     fill-opacity="0.501961" />
  <circle
     cx="109"
     cy="6"
     r="13"
     id="5"
     fill="rgb(255,255,255)"
     fill-opacity="0.501961" />
  <ellipse
     cx="237"
     cy="12"
     rx="11"
     ry="6"
     id="6"
     fill="rgb(255,255,255)"
     fill-opacity="0.501961" />
  <circle
     cx="187"
     cy="5"
     r="7"
     id="7"
     fill="rgb(148,0,0)"
     fill-opacity="0.501961" />
  <ellipse
     cx="54"
     cy="0"
     rx="18"
     ry="13"
     id="8"
     fill="rgb(255,255,255)"
     fill-opacity="0.501961" />
  <ellipse
     cx="206"
     cy="0"
     rx="14"
     ry="7"
     id="9"
     fill="rgb(255,255,255)"
     fill-opacity="0.501961" />
  <ellipse
     cx="220"
     cy="31"
     rx="18"
     ry="9"
     id="10"
     fill="rgb(133,80,118)"
     fill-opacity="0.501961" />
  <circle
     cx="251"
     cy="7"
     r="5"
     id="11"
     fill="rgb(148,0,0)"
     fill-opacity="0.501961" />
  <circle
     cx="184"
     cy="31"
     r="18"
     id="12"
     fill="rgb(255,255,255)"
     fill-opacity="0.501961" />
  <ellipse
     cx="32"
     cy="18"
     rx="22"
     ry="5"
     id="13"
     fill="rgb(233,255,255)"
     fill-opacity="0.501961" />
  <ellipse
     cx="232"
     cy="3"
     rx="13"
     ry="4"
     id="14"
     fill="rgb(136,0,0)"
     fill-opacity="0.501961" />
  <ellipse
     cx="78"
     cy="31"
     rx="12"
     ry="6"
     id="15"
     fill="rgb(255,255,255)"
     fill-opacity="0.501961" />
  <ellipse
     cx="218"
     cy="10"
     rx="9"
     ry="5"
     id="16"
     fill="rgb(148,0,0)"
     fill-opacity="0.501961" />
  <ellipse
     cx="34"
     cy="31"
     rx="18"
     ry="8"
     id="17"
     fill="rgb(138,87,126)"
     fill-opacity="0.501961" />
  <ellipse
     cx="239"
     cy="16"
     rx="11"
     ry="10"
     id="18"
     fill="rgb(255,255,255)"
     fill-opacity="0.501961" />
  <ellipse
     cx="109"
     cy="0"
     rx="13"
     ry="18"
     id="19"
     fill="rgb(253,255,255)"
     fill-opacity="0.501961" />
  <ellipse
     cx="164"
     cy="1"
     rx="12"
     ry="4"
     id="20"
     fill="rgb(255,255,255)"
     fill-opacity="0.501961" />
  <ellipse
     cx="48"
     cy="5"
     rx="6"
     ry="22"
     id="21"
     fill="rgb(224,255,255)"
     fill-opacity="0.501961" />
  <circle
     cx="68"
     cy="18"
     r="9"
     id="22"
     fill="rgb(187,95,77)"
     fill-opacity="0.501961" />
  <ellipse
     cx="57"
     cy="27"
     rx="5"
     ry="15"
     id="23"
     fill="rgb(157,8,0)"
     fill-opacity="0.501961" />
  <ellipse
     cx="202"
     cy="5"
     rx="6"
     ry="20"
     id="24"
     fill="rgb(231,255,255)"
     fill-opacity="0.501961" />
  <circle
     cx="252"
     cy="0"
     r="4"
     id="25"
     fill="rgb(255,255,255)"
     fill-opacity="0.501961" />
  <ellipse
     cx="210"
     cy="0"
     rx="11"
     ry="6"
     id="26"
     fill="rgb(255,255,255)"
     fill-opacity="0.501961" />
  <ellipse
     cx="209"
     cy="20"
     rx="25"
     ry="3"
     id="27"
     fill="rgb(235,255,255)"
     fill-opacity="0.501961" />
  <ellipse
     cx="255"
     cy="31"
     rx="10"
     ry="13"
     id="28"
     fill="rgb(144,94,131)"
     fill-opacity="0.501961" />
  <ellipse
     cx="60"
     cy="0"
     rx="11"
     ry="12"
     id="29"
     fill="rgb(251,255,255)"
     fill-opacity="0.501961" />
  <ellipse
     cx="184"
     cy="8"
     rx="13"
     ry="4"
     id="30"
     fill="rgb(182,87,69)"
     fill-opacity="0.501961" />
  <ellipse
     cx="235"
     cy="14"
     rx="10"
     ry="6"
     id="31"
     fill="rgb(255,255,255)"
     fill-opacity="0.501961" />
  <ellipse
     cx="0"
     cy="29"
     rx="6"
     ry="14"
     id="32"
     fill="rgb(138,86,126)"
     fill-opacity="0.501961" />
  <ellipse
     cx="18"
     cy="6"
     rx="23"
     ry="7"
     id="33"
     fill="rgb(177,161,158)"
     fill-opacity="0.501961" />
  <ellipse
     cx="183"
     cy="31"
     rx="19"
     ry="14"
     id="34"
     fill="rgb(253,255,255)"
     fill-opacity="0.501961" />
  <circle
     cx="244"
     cy="4"
     r="4"
     id="35"
     fill="rgb(150,2,0)"
     fill-opacity="0.501961" />
  <ellipse
     cx="255"
     cy="9"
     rx="8"
     ry="4"
     id="36"
     fill="rgb(151,2,0)"
     fill-opacity="0.501961" />
  <ellipse
     cx="197"
     cy="16"
     rx="18"
     ry="6"
     id="37"
     fill="rgb(242,255,255)"
     fill-opacity="0.501961" />
  <circle
     cx="12"
     cy="21"
     r="8"
     id="38"
     fill="rgb(255,233,210)"
     fill-opacity="0.501961" />
  <circle
     cx="195"
     cy="8"
     r="3"
     id="39"
     fill="rgb(155,26,9)"
     fill-opacity="0.501961" />
  <circle
     cx="228"
     cy="2"
     r="7"
     id="40"
     fill="rgb(156,10,0)"
     fill-opacity="0.501961" />
  <ellipse
     cx="76"
     cy="4"
     rx="5"
     ry="9"
     id="41"
     fill="rgb(196,125,114)"
     fill-opacity="0.501961" />
  <ellipse
     cx="252"
     cy="0"
     rx="6"
     ry="4"
     id="42"
     fill="rgb(255,255,255)"
     fill-opacity="0.501961" />
  <ellipse
     cx="81"
     cy="31"
     rx="15"
     ry="5"
     id="43"
     fill="rgb(252,255,255)"
     fill-opacity="0.501961" />
  <ellipse
     cx="0"
     cy="13"
     rx="11"
     ry="3"
     id="44"
     fill="rgb(241,255,255)"
     fill-opacity="0.501961" />
  <ellipse
     cx="242"
     cy="15"
     rx="16"
     ry="3"
     id="45"
     fill="rgb(249,255,255)"
     fill-opacity="0.501961" />
  <circle
     cx="202"
     cy="5"
     r="6"
     id="46"
     fill="rgb(222,255,255)"
     fill-opacity="0.501961" />
  <circle
     cx="241"
     cy="23"
     r="8"
     id="47"
     fill="rgb(241,213,192)"
     fill-opacity="0.501961" />
  <ellipse
     cx="41"
     cy="19"
     rx="12"
     ry="4"
     id="48"
     fill="rgb(228,255,255)"
     fill-opacity="0.501961" />
  <ellipse
     cx="109"
     cy="4"
     rx="12"
     ry="14"
     id="49"
     fill="rgb(244,255,255)"
     fill-opacity="0.501961" />
  <ellipse
     cx="168"
     cy="0"
     rx="11"
     ry="4"
     id="50"
     fill="rgb(255,255,255)"
     fill-opacity="0.501961" />
  <circle
     cx="35"
     cy="9"
     r="8"
     id="51"
     fill="rgb(184,166,163)"
     fill-opacity="0.501961" />
  <ellipse
     cx="178"
     cy="8"
     rx="7"
     ry="7"
     id="52"
     fill="rgb(201,150,141)"
     fill-opacity="0.501961" />
  <circle
     cx="52"
     cy="0"
     r="13"
     id="53"
     fill="rgb(228,255,255)"
     fill-opacity="0.501961" />
  <circle
     cx="25"
     cy="25"
     r="5"
     id="54"
     fill="rgb(162,119,145)"
     fill-opacity="0.501961" />
  <circle
     cx="211"
     cy="8"
     r="3"
     id="55"
     fill="rgb(153,11,0)"
     fill-opacity="0.501961" />
  <circle
     cx="189"
     cy="3"
     r="4"
     id="56"
     fill="rgb(163,38,14)"
     fill-opacity="0.501961" />
  <circle
     cx="215"
     cy="11"
     r="4"
     id="57"
     fill="rgb(156,11,0)"
     fill-opacity="0.501961" />
  <ellipse
     cx="204"
     cy="30"
     rx="3"
     ry="7"
     id="58"
     fill="rgb(159,117,141)"
     fill-opacity="0.501961" />
  <ellipse
     cx="201"
     cy="20"
     rx="26"
     ry="4"
     id="59"
     fill="rgb(236,255,255)"
     fill-opacity="0.501961" />
  <circle
     cx="212"
     cy="0"
     r="6"
     id="60"
     fill="rgb(255,255,255)"
     fill-opacity="0.501961" />
  <ellipse
     cx="150"
     cy="15"
     rx="24"
     ry="12"
     id="61"
     fill="rgb(213,180,171)"
     fill-opacity="0.501961" />
  <circle
     cx="47"
     cy="19"
     r="6"
     id="62"
     fill="rgb(228,255,255)"
     fill-opacity="0.501961" />
  <ellipse
     cx="241"
     cy="14"
     rx="9"
     ry="7"
     id="63"
     fill="rgb(251,246,241)"
     fill-opacity="0.501961" />
  <circle
     cx="220"
     cy="12"
     r="5"
     id="64"
     fill="rgb(161,19,0)"
     fill-opacity="0.501961" />
  <ellipse
     cx="16"
     cy="21"
     rx="5"
     ry="9"
     id="65"
     fill="rgb(243,217,201)"
     fill-opacity="0.501961" />
  <ellipse
     cx="84"
     cy="15"
     rx="13"
     ry="11"
     id="66"
     fill="rgb(212,177,169)"
     fill-opacity="0.501961" />
  <ellipse
     cx="122"
     cy="27"
     rx="32"
     ry="10"
     id="67"
     fill="rgb(213,179,171)"
     fill-opacity="0.501961" />
  <circle
     cx="239"
     cy="0"
     r="6"
     id="68"
     fill="rgb(159,18,0)"
     fill-opacity="0.501961" />
  <ellipse
     cx="183"
     cy="30"
     rx="18"
     ry="12"
     id="69"
     fill="rgb(249,255,255)"
     fill-opacity="0.501961" />
  <ellipse
     cx="36"
     cy="19"
     rx="16"
     ry="3"
     id="70"
     fill="rgb(227,255,255)"
     fill-opacity="0.501961" />
  <ellipse
     cx="50"
     cy="1"
     rx="4"
     ry="26"
     id="71"
     fill="rgb(223,255,255)"
     fill-opacity="0.501961" />
  <ellipse
     cx="255"
     cy="15"
     rx="5"
     ry="3"
     id="72"
     fill="rgb(224,255,255)"
     fill-opacity="0.501961" />
  <ellipse
     cx="183"
     cy="11"
     rx="15"
     ry="1"
     id="73"
     fill="rgb(198,133,124)"
     fill-opacity="0.501961" />
  <ellipse
     cx="49"
     cy="0"
     rx="18"
     ry="3"
     id="74"
     fill="rgb(229,255,255)"
     fill-opacity="0.501961" />
  <circle
     cx="240"
     cy="22"
     r="8"
     id="75"
     fill="rgb(237,214,201)"
     fill-opacity="0.501961" />
  <circle
     cx="171"
     cy="11"
     r="7"
     id="76"
     fill="rgb(210,178,172)"
     fill-opacity="0.501961" />
  <ellipse
     cx="46"
     cy="27"
     rx="6"
     ry="3"
     id="77"
     fill="rgb(167,124,147)"
     fill-opacity="0.501961" />
  <circle
     cx="206"
     cy="16"
     r="6"
     id="78"
     fill="rgb(217,255,255)"
     fill-opacity="0.501961" />
  <circle
     cx="234"
     cy="13"
     r="6"
     id="79"
     fill="rgb(255,255,255)"
     fill-opacity="0.501961" />
  <ellipse
     cx="254"
     cy="7"
     rx="10"
     ry="3"
     id="80"
     fill="rgb(155,21,0)"
     fill-opacity="0.501961" />
  <ellipse
     cx="12"
     cy="31"
     rx="6"
     ry="1"
     id="81"
     fill="rgb(148,100,134)"
     fill-opacity="0.501961" />
  <circle
     cx="58"
     cy="31"
     r="7"
     id="82"
     fill="rgb(166,42,17)"
     fill-opacity="0.501961" />
  <ellipse
     cx="190"
     cy="17"
     rx="12"
     ry="6"
     id="83"
     fill="rgb(255,255,255)"
     fill-opacity="0.501961" />
  <circle
     cx="71"
     cy="8"
     r="2"
     id="84"
     fill="rgb(184,98,84)"
     fill-opacity="0.501961" />
  <ellipse
     cx="66"
     cy="19"
     rx="3"
     ry="9"
     id="85"
     fill="rgb(185,102,90)"
     fill-opacity="0.501961" />
  <circle
     cx="59"
     cy="0"
     r="12"
     id="86"
     fill="rgb(246,255,255)"
     fill-opacity="0.501961" />
  <ellipse
     cx="210"
     cy="29"
     rx="8"
     ry="6"
     id="87"
     fill="rgb(168,127,146)"
     fill-opacity="0.501961" />
  <ellipse
     cx="229"
     cy="25"
     rx="5"
     ry="4"
     id="88"
     fill="rgb(168,127,150)"
     fill-opacity="0.501961" />
  <circle
     cx="192"
     cy="4"
     r="2"
     id="89"
     fill="rgb(159,28,8)"
     fill-opacity="0.501961" />
  <circle
     cx="223"
     cy="10"
     r="4"
     id="90"
     fill="rgb(161,32,7)"
     fill-opacity="0.501961" />
  <ellipse
     cx="200"
     cy="4"
     rx="5"
     ry="5"
     id="91"
     fill="rgb(224,255,255)"
     fill-opacity="0.501961" />
  <ellipse
     cx="41"
     cy="21"
     rx="4"
     ry="4"
     id="92"
     fill="rgb(224,255,255)"
     fill-opacity="0.501961" />
  <ellipse
     cx="255"
     cy="31"
     rx="16"
     ry="3"
     id="93"
     fill="rgb(164,123,147)"
     fill-opacity="0.501961" />
  <circle
     cx="109"
     cy="6"
     r="12"
     id="94"
     fill="rgb(243,255,255)"
     fill-opacity="0.501961" />
  <circle
     cx="90"
     cy="0"
     r="8"
     id="95"
     fill="rgb(210,172,163)"
     fill-opacity="0.501961" />
  <ellipse
     cx="49"
     cy="5"
     rx="6"
     ry="15"
     id="96"
     fill="rgb(223,255,255)"
     fill-opacity="0.501961" />
  <ellipse
     cx="79"
     cy="31"
     rx="12"
     ry="5"
     id="97"
     fill="rgb(247,255,255)"
     fill-opacity="0.501961" />
  <ellipse
     cx="32"
     cy="12"
     rx="11"
     ry="3"
     id="98"
     fill="rgb(188,167,163)"
     fill-opacity="0.501961" />
  <ellipse
     cx="214"
     cy="1"
     rx="6"
     ry="3"
     id="99"
     fill="rgb(255,255,255)"
     fill-opacity="0.501961" />
  <ellipse
     cx="168"
     cy="0"
     rx="12"
     ry="3"
     id="100"
     fill="rgb(248,255,255)"
     fill-opacity="0.501961" />
  <circle
     cx="197"
     cy="10"
     r="1"
     id="101"
     fill="rgb(160,36,18)"
     fill-opacity="0.501961" />
  <circle
     cx="25"
     cy="17"
     r="3"
     id="102"
     fill="rgb(227,255,255)"
     fill-opacity="0.501961" />
  <ellipse
     cx="228"
     cy="4"
     rx="9"
     ry="4"
     id="103"
     fill="rgb(160,29,4)"
     fill-opacity="0.501961" />
  <circle
     cx="203"
     cy="10"
     r="5"
     id="104"
     fill="rgb(227,255,255)"
     fill-opacity="0.501961" />
  <circle
     cx="140"
     cy="20"
     r="23"
     id="105"
     fill="rgb(212,182,175)"
     fill-opacity="0.501961" />
  <ellipse
     cx="29"
     cy="31"
     rx="9"
     ry="10"
     id="106"
     fill="rgb(171,133,152)"
     fill-opacity="0.501961" />
  <ellipse
     cx="243"
     cy="18"
     rx="8"
     ry="2"
     id="107"
     fill="rgb(226,205,192)"
     fill-opacity="0.501961" />
  <circle
     cx="181"
     cy="4"
     r="3"
     id="108"
     fill="rgb(186,104,91)"
     fill-opacity="0.501961" />
  <ellipse
     cx="221"
     cy="6"
     rx="14"
     ry="1"
     id="109"
     fill="rgb(167,47,27)"
     fill-opacity="0.501961" />
  <ellipse
     cx="40"
     cy="11"
     rx="3"
     ry="5"
     id="110"
     fill="rgb(189,165,162)"
     fill-opacity="0.501961" />
  <ellipse
     cx="13"
     cy="20"
     rx="8"
     ry="9"
     id="111"
     fill="rgb(238,216,202)"
     fill-opacity="0.501961" />
  <circle
     cx="230"
     cy="16"
     r="5"
     id="112"
     fill="rgb(247,255,255)"
     fill-opacity="0.501961" />
  <ellipse
     cx="62"
     cy="29"
     rx="4"
     ry="17"
     id="113"
     fill="rgb(175,72,55)"
     fill-opacity="0.501961" />
  <ellipse
     cx="253"
     cy="23"
     rx="5"
     ry="5"
     id="114"
     fill="rgb(167,127,148)"
     fill-opacity="0.501961" />
  <circle
     cx="255"
     cy="15"
     r="3"
     id="115"
     fill="rgb(224,255,255)"
     fill-opacity="0.501961" />
  <circle
     cx="190"
     cy="2"
     r="3"
     id="116"
     fill="rgb(167,55,39)"
     fill-opacity="0.501961" />
  <circle
     cx="3"
     cy="13"
     r="2"
     id="117"
     fill="rgb(223,255,255)"
     fill-opacity="0.501961" />
  <circle
     cx="192"
     cy="7"
     r="3"
     id="118"
     fill="rgb(163,39,22)"
     fill-opacity="0.501961" />
  <circle
     cx="223"
     cy="16"
     r="1"
     id="119"
     fill="rgb(151,0,0)"
     fill-opacity="0.501961" />
  <ellipse
     cx="174"
     cy="31"
     rx="11"
     ry="7"
     id="120"
     fill="rgb(242,255,255)"
     fill-opacity="0.501961" />
  <circle
     cx="68"
     cy="24"
     r="4"
     id="121"
     fill="rgb(190,119,109)"
     fill-opacity="0.501961" />
  <circle
     cx="253"
     cy="0"
     r="4"
     id="122"
     fill="rgb(255,255,255)"
     fill-opacity="0.501961" />
  <ellipse
     cx="161"
     cy="0"
     rx="6"
     ry="5"
     id="123"
     fill="rgb(243,255,255)"
     fill-opacity="0.501961" />
  <circle
     cx="6"
     cy="31"
     r="3"
     id="124"
     fill="rgb(161,118,144)"
     fill-opacity="0.501961" />
  <ellipse
     cx="116"
     cy="25"
     rx="30"
     ry="8"
     id="125"
     fill="rgb(212,182,176)"
     fill-opacity="0.501961" />
  <ellipse
     cx="74"
     cy="5"
     rx="2"
     ry="6"
     id="126"
     fill="rgb(193,128,118)"
     fill-opacity="0.501961" />
  <ellipse
     cx="69"
     cy="17"
     rx="2"
     ry="9"
     id="127"
     fill="rgb(192,125,117)"
     fill-opacity="0.501961" />
  <ellipse
     cx="149"
     cy="14"
     rx="29"
     ry="7"
     id="128"
     fill="rgb(212,183,177)"
     fill-opacity="0.501961" />
  <circle
     cx="239"
     cy="12"
     r="5"
     id="129"
     fill="rgb(255,255,255)"
     fill-opacity="0.501961" />
  <ellipse
     cx="8"
     cy="4"
     rx="27"
     ry="8"
     id="130"
     fill="rgb(192,172,168)"
     fill-opacity="0.501961" />
  <circle
     cx="211"
     cy="0"
     r="5"
     id="131"
     fill="rgb(255,255,255)"
     fill-opacity="0.501961" />
  <ellipse
     cx="207"
     cy="18"
     rx="13"
     ry="3"
     id="132"
     fill="rgb(230,255,255)"
     fill-opacity="0.501961" />
  <ellipse
     cx="196"
     cy="29"
     rx="6"
     ry="17"
     id="133"
     fill="rgb(255,255,255)"
     fill-opacity="0.501961" />
  <ellipse
     cx="255"
     cy="1"
     rx="9"
     ry="2"
     id="134"
     fill="rgb(255,255,255)"
     fill-opacity="0.501961" />
  <ellipse
     cx="237"
     cy="2"
     rx="8"
     ry="5"
     id="135"
     fill="rgb(159,30,10)"
     fill-opacity="0.501961" />
  <ellipse
     cx="28"
     cy="18"
     rx="8"
     ry="3"
     id="136"
     fill="rgb(226,255,255)"
     fill-opacity="0.501961" />
  <circle
     cx="159"
     cy="18"
     r="11"
     id="137"
     fill="rgb(212,183,177)"
     fill-opacity="0.501961" />
  <circle
     cx="55"
     cy="19"
     r="2"
     id="138"
     fill="rgb(162,35,10)"
     fill-opacity="0.501961" />
  <ellipse
     cx="85"
     cy="31"
     rx="8"
     ry="3"
     id="139"
     fill="rgb(245,255,255)"
     fill-opacity="0.501961" />
  <circle
     cx="240"
     cy="23"
     r="7"
     id="140"
     fill="rgb(239,216,202)"
     fill-opacity="0.501961" />
  <ellipse
     cx="251"
     cy="16"
     rx="4"
     ry="3"
     id="141"
     fill="rgb(218,255,255)"
     fill-opacity="0.501961" />
  <ellipse
     cx="42"
     cy="21"
     rx="8"
     ry="3"
     id="142"
     fill="rgb(226,255,255)"
     fill-opacity="0.501961" />
  <circle
     cx="41"
     cy="0"
     r="4"
     id="143"
     fill="rgb(224,255,255)"
     fill-opacity="0.501961" />
  <ellipse
     cx="133"
     cy="24"
     rx="27"
     ry="11"
     id="144"
     fill="rgb(212,182,176)"
     fill-opacity="0.501961" />
  <circle
     cx="3"
     cy="19"
     r="3"
     id="145"
     fill="rgb(173,135,155)"
     fill-opacity="0.501961" />
  <ellipse
     cx="220"
     cy="14"
     rx="4"
     ry="3"
     id="146"
     fill="rgb(157,22,2)"
     fill-opacity="0.501961" />
  <circle
     cx="38"
     cy="10"
     r="5"
     id="147"
     fill="rgb(193,171,169)"
     fill-opacity="0.501961" />
  <ellipse
     cx="215"
     cy="20"
     rx="18"
     ry="2"
     id="148"
     fill="rgb(222,255,255)"
     fill-opacity="0.501961" />
  <ellipse
     cx="254"
     cy="24"
     rx="5"
     ry="7"
     id="149"
     fill="rgb(172,134,153)"
     fill-opacity="0.501961" />
  <ellipse
     cx="73"
     cy="14"
     rx="4"
     ry="12"
     id="150"
     fill="rgb(202,153,146)"
     fill-opacity="0.501961" />
  <ellipse
     cx="76"
     cy="18"
     rx="3"
     ry="8"
     id="151"
     fill="rgb(208,168,162)"
     fill-opacity="0.501961" />
  <ellipse
     cx="220"
     cy="27"
     rx="8"
     ry="5"
     id="152"
     fill="rgb(174,136,155)"
     fill-opacity="0.501961" />
  <ellipse
     cx="230"
     cy="27"
     rx="3"
     ry="7"
     id="153"
     fill="rgb(172,135,155)"
     fill-opacity="0.501961" />
  <ellipse
     cx="57"
     cy="13"
     rx="2"
     ry="1"
     id="154"
     fill="rgb(185,86,67)"
     fill-opacity="0.501961" />
  <circle
     cx="63"
     cy="0"
     r="9"
     id="155"
     fill="rgb(249,255,255)"
     fill-opacity="0.501961" />
  <circle
     cx="196"
     cy="0"
     r="3"
     id="156"
     fill="rgb(222,255,255)"
     fill-opacity="0.501961" />
  <ellipse
     cx="82"
     cy="0"
     rx="4"
     ry="8"
     id="157"
     fill="rgb(206,163,156)"
     fill-opacity="0.501961" />
  <circle
     cx="196"
     cy="10"
     r="1"
     id="158"
     fill="rgb(155,10,0)"
     fill-opacity="0.501961" />
  <ellipse
     cx="32"
     cy="11"
     rx="9"
     ry="5"
     id="159"
     fill="rgb(193,172,169)"
     fill-opacity="0.501961" />
  <circle
     cx="23"
     cy="23"
     r="3"
     id="160"
     fill="rgb(171,130,150)"
     fill-opacity="0.501961" />
  <circle
     cx="246"
     cy="16"
     r="2"
     id="161"
     fill="rgb(235,205,189)"
     fill-opacity="0.501961" />
  <ellipse
     cx="168"
     cy="12"
     rx="17"
     ry="1"
     id="162"
     fill="rgb(207,167,160)"
     fill-opacity="0.501961" />
  <circle
     cx="50"
     cy="0"
     r="10"
     id="163"
     fill="rgb(222,255,255)"
     fill-opacity="0.501961" />
  <ellipse
     cx="245"
     cy="4"
     rx="4"
     ry="3"
     id="164"
     fill="rgb(157,28,4)"
     fill-opacity="0.501961" />
  <circle
     cx="131"
     cy="0"
     r="10"
     id="165"
     fill="rgb(212,178,172)"
     fill-opacity="0.501961" />
  <ellipse
     cx="12"
     cy="24"
     rx="5"
     ry="7"
     id="166"
     fill="rgb(238,217,204)"
     fill-opacity="0.501961" />
  <ellipse
     cx="113"
     cy="8"
     rx="8"
     ry="5"
     id="167"
     fill="rgb(244,255,255)"
     fill-opacity="0.501961" />
  <ellipse
     cx="24"
     cy="17"
     rx="3"
     ry="4"
     id="168"
     fill="rgb(226,255,255)"
     fill-opacity="0.501961" />
  <ellipse
     cx="161"
     cy="0"
     rx="7"
     ry="4"
     id="169"
     fill="rgb(244,255,255)"
     fill-opacity="0.501961" />
  <circle
     cx="207"
     cy="12"
     r="3"
     id="170"
     fill="rgb(227,255,255)"
     fill-opacity="0.501961" />
  <ellipse
     cx="38"
     cy="31"
     rx="8"
     ry="8"
     id="171"
     fill="rgb(173,133,153)"
     fill-opacity="0.501961" />
  <ellipse
     cx="47"
     cy="0"
     rx="13"
     ry="3"
     id="172"
     fill="rgb(225,255,255)"
     fill-opacity="0.501961" />
  <circle
     cx="65"
     cy="15"
     r="4"
     id="173"
     fill="rgb(182,96,85)"
     fill-opacity="0.501961" />
  <ellipse
     cx="252"
     cy="10"
     rx="3"
     ry="2"
     id="174"
     fill="rgb(156,18,0)"
     fill-opacity="0.501961" />
  <circle
     cx="214"
     cy="10"
     r="4"
     id="175"
     fill="rgb(160,33,10)"
     fill-opacity="0.501961" />
  <ellipse
     cx="240"
     cy="19"
     rx="8"
     ry="3"
     id="176"
     fill="rgb(235,212,199)"
     fill-opacity="0.501961" />
  <circle
     cx="0"
     cy="13"
     r="2"
     id="177"
     fill="rgb(215,255,255)"
     fill-opacity="0.501961" />
  <circle
     cx="179"
     cy="12"
     r="2"
     id="178"
     fill="rgb(197,140,132)"
     fill-opacity="0.501961" />
  <circle
     cx="209"
     cy="7"
     r="1"
     id="179"
     fill="rgb(151,9,0)"
     fill-opacity="0.501961" />
  <ellipse
     cx="204"
     cy="24"
     rx="1"
     ry="1"
     id="180"
     fill="rgb(221,255,255)"
     fill-opacity="0.501961" />
  <ellipse
     cx="171"
     cy="0"
     rx="9"
     ry="3"
     id="181"
     fill="rgb(245,255,255)"
     fill-opacity="0.501961" />
  <circle
     cx="48"
     cy="28"
     r="3"
     id="182"
     fill="rgb(172,134,153)"
     fill-opacity="0.501961" />
  <ellipse
     cx="54"
     cy="31"
     rx="2"
     ry="10"
     id="183"
     fill="rgb(158,24,5)"
     fill-opacity="0.501961" />
  <circle
     cx="228"
     cy="7"
     r="2"
     id="184"
     fill="rgb(153,17,0)"
     fill-opacity="0.501961" />
  <ellipse
     cx="78"
     cy="31"
     rx="7"
     ry="6"
     id="185"
     fill="rgb(244,255,255)"
     fill-opacity="0.501961" />
  <circle
     cx="97"
     cy="0"
     r="2"
     id="186"
     fill="rgb(206,171,167)"
     fill-opacity="0.501961" />
  <circle
     cx="0"
     cy="16"
     r="1"
     id="187"
     fill="rgb(167,124,146)"
     fill-opacity="0.501961" />
  <circle
     cx="110"
     cy="5"
     r="12"
     id="188"
     fill="rgb(243,255,255)"
     fill-opacity="0.501961" />
  <circle
     cx="10"
     cy="16"
     r="5"
     id="189"
     fill="rgb(238,215,201)"
     fill-opacity="0.501961" />
  <ellipse
     cx="141"
     cy="17"
     rx="16"
     ry="25"
     id="190"
     fill="rgb(212,182,176)"
     fill-opacity="0.501961" />
  <ellipse
     cx="238"
     cy="9"
     rx="7"
     ry="2"
     id="191"
     fill="rgb(255,255,255)"
     fill-opacity="0.501961" />
  <ellipse
     cx="137"
     cy="1"
     rx="16"
     ry="14"
     id="192"
     fill="rgb(212,182,176)"
     fill-opacity="0.501961" />
  <ellipse
     cx="197"
     cy="12"
     rx="1"
     ry="1"
     id="193"
     fill="rgb(231,183,177)"
     fill-opacity="0.501961" />
  <ellipse
     cx="199"
     cy="0"
     rx="5"
     ry="8"
     id="194"
     fill="rgb(225,255,255)"
     fill-opacity="0.501961" />
  <ellipse
     cx="224"
     cy="23"
     rx="2"
     ry="2"
     id="195"
     fill="rgb(172,139,159)"
     fill-opacity="0.501961" />
  <ellipse
     cx="36"
     cy="20"
     rx="7"
     ry="3"
     id="196"
     fill="rgb(226,255,255)"
     fill-opacity="0.501961" />
  <circle
     cx="15"
     cy="20"
     r="6"
     id="197"
     fill="rgb(236,213,200)"
     fill-opacity="0.501961" />
  <circle
     cx="184"
     cy="24"
     r="11"
     id="198"
     fill="rgb(246,255,255)"
     fill-opacity="0.501961" />
  <ellipse
     cx="162"
     cy="16"
     rx="10"
     ry="9"
     id="199"
     fill="rgb(212,183,177)"
     fill-opacity="0.501961" />
  <circle
     cx="76"
     cy="0"
     r="3"
     id="200"
     fill="rgb(194,129,119)"
     fill-opacity="0.501961" />
  <ellipse
     cx="228"
     cy="31"
     rx="25"
     ry="1"
     id="201"
     fill="rgb(172,133,153)"
     fill-opacity="0.501961" />
  <circle
     cx="195"
     cy="7"
     r="1"
     id="202"
     fill="rgb(159,28,11)"
     fill-opacity="0.501961" />
  <circle
     cx="179"
     cy="4"
     r="2"
     id="203"
     fill="rgb(193,127,118)"
     fill-opacity="0.501961" />
  <ellipse
     cx="34"
     cy="31"
     rx="17"
     ry="7"
     id="204"
     fill="rgb(174,135,154)"
     fill-opacity="0.501961" />
  <ellipse
     cx="89"
     cy="16"
     rx="12"
     ry="4"
     id="205"
     fill="rgb(212,183,176)"
     fill-opacity="0.501961" />
  <ellipse
     cx="252"
     cy="20"
     rx="4"
     ry="2"
     id="206"
     fill="rgb(171,132,151)"
     fill-opacity="0.501961" />
  <ellipse
     cx="220"
     cy="5"
     rx="3"
     ry="2"
     id="207"
     fill="rgb(162,30,10)"
     fill-opacity="0.501961" />
  <circle
     cx="69"
     cy="12"
     r="3"
     id="208"
     fill="rgb(191,122,112)"
     fill-opacity="0.501961" />
  <circle
     cx="14"
     cy="24"
     r="6"
     id="209"
     fill="rgb(238,216,203)"
     fill-opacity="0.501961" />
  <ellipse
     cx="69"
     cy="18"
     rx="4"
     ry="3"
     id="210"
     fill="rgb(195,134,124)"
     fill-opacity="0.501961" />
  <ellipse
     cx="50"
     cy="24"
     rx="2"
     ry="2"
     id="211"
     fill="rgb(226,254,255)"
     fill-opacity="0.501961" />
  <ellipse
     cx="191"
     cy="10"
     rx="3"
     ry="1"
     id="212"
     fill="rgb(166,47,30)"
     fill-opacity="0.501961" />
  <ellipse
     cx="191"
     cy="15"
     rx="9"
     ry="4"
     id="213"
     fill="rgb(252,255,255)"
     fill-opacity="0.501961" />
  <ellipse
     cx="238"
     cy="11"
     rx="10"
     ry="4"
     id="214"
     fill="rgb(255,255,255)"
     fill-opacity="0.501961" />
  <ellipse
     cx="65"
     cy="24"
     rx="2"
     ry="8"
     id="215"
     fill="rgb(184,98,85)"
     fill-opacity="0.501961" />
  <ellipse
     cx="255"
     cy="4"
     rx="4"
     ry="1"
     id="216"
     fill="rgb(195,109,89)"
     fill-opacity="0.501961" />
  <ellipse
     cx="2"
     cy="13"
     rx="5"
     ry="2"
     id="217"
     fill="rgb(229,255,255)"
     fill-opacity="0.501961" />
  <ellipse
     cx="212"
     cy="25"
     rx="9"
     ry="1"
     id="218"
     fill="rgb(168,127,147)"
     fill-opacity="0.501961" />
  <ellipse
     cx="48"
     cy="15"
     rx="6"
     ry="4"
     id="219"
     fill="rgb(227,255,255)"
     fill-opacity="0.501961" />
  <circle
     cx="229"
     cy="20"
     r="1"
     id="220"
     fill="rgb(223,255,255)"
     fill-opacity="0.501961" />
  <circle
     cx="250"
     cy="31"
     r="5"
     id="221"
     fill="rgb(173,134,153)"
     fill-opacity="0.501961" />
  <ellipse
     cx="37"
     cy="11"
     rx="7"
     ry="5"
     id="222"
     fill="rgb(193,171,168)"
     fill-opacity="0.501961" />
  <ellipse
     cx="186"
     cy="0"
     rx="2"
     ry="11"
     id="223"
     fill="rgb(180,90,74)"
     fill-opacity="0.501961" />
  <ellipse
     cx="196"
     cy="24"
     rx="5"
     ry="11"
     id="224"
     fill="rgb(255,255,255)"
     fill-opacity="0.501961" />
  <ellipse
     cx="56"
     cy="21"
     rx="3"
     ry="8"
     id="225"
     fill="rgb(164,43,22)"
     fill-opacity="0.501961" />
  <ellipse
     cx="208"
     cy="23"
     rx="5"
     ry="1"
     id="226"
     fill="rgb(216,255,255)"
     fill-opacity="0.501961" />
  <ellipse
     cx="95"
     cy="11"
     rx="2"
     ry="27"
     id="227"
     fill="rgb(212,183,177)"
     fill-opacity="0.501961" />
</svg>
